<?xml version="1.0" encoding="UTF-8" standalone="no"?>
<!-- Created with Inkscape (http://www.inkscape.org/) -->

<svg
   version="1.1"
   id="svg198"
   width="771.69427"
   height="984.66699"
   viewBox="0 0 771.69427 984.66704"
   sodipodi:docname="5a.svg"
   inkscape:version="1.2.2 (732a01da63, 2022-12-09, custom)"
   xmlns:inkscape="http://www.inkscape.org/namespaces/inkscape"
   xmlns:sodipodi="http://sodipodi.sourceforge.net/DTD/sodipodi-0.dtd"
   xmlns="http://www.w3.org/2000/svg"
   xmlns:svg="http://www.w3.org/2000/svg">
  <defs
     id="defs202" />
  <sodipodi:namedview
     id="namedview200"
     pagecolor="#ffffff"
     bordercolor="#000000"
     borderopacity="0.25"
     inkscape:showpageshadow="2"
     inkscape:pageopacity="0.0"
     inkscape:pagecheckerboard="0"
     inkscape:deskcolor="#d1d1d1"
     showgrid="false"
     inkscape:zoom="0.79291294"
     inkscape:cx="387.17996"
     inkscape:cy="491.22669"
     inkscape:window-width="1846"
     inkscape:window-height="1016"
     inkscape:window-x="0"
     inkscape:window-y="0"
     inkscape:window-maximized="1"
     inkscape:current-layer="layer1" />
  <g
     inkscape:groupmode="layer"
     id="layer1"
     inkscape:label="Layer 1"
     transform="translate(-28.112725,-21.333333)">
    <path
       style="fill:#000000;stroke-width:1.33333"
       d="m 544.17197,996.99997 c -7.95289,-7.99938 -17.50532,-23.77919 -17.50532,-28.91735 0,-4.21976 6.91887,-16.0964 11.64811,-19.99464 4.49965,-3.70898 4.77304,-4.40969 5.37402,-13.77448 0.60376,-9.40788 0.47072,-9.9945 -2.86113,-12.61534 -1.92188,-1.51175 -3.49433,-4.03156 -3.49433,-5.59958 0,-3.81681 3.23377,-11.33777 8.2076,-19.0888 4.76554,-7.42645 6.07888,-12.4794 8.37938,-32.23899 1.39932,-12.01908 1.38103,-16.32728 -0.10466,-24.66667 -0.99007,-5.55728 -2.16906,-12.50415 -2.61998,-15.43748 -0.4509,-2.93333 -1.59333,-7.73333 -2.53869,-10.66667 -3.14133,-9.74708 -3.56215,-22.02764 -1.40871,-41.11026 2.21068,-19.58981 1.80284,-26.70915 -1.96052,-34.22307 -4.90332,-9.78997 -3.90453,-9.58157 -38.09965,-7.94937 -54.67537,2.60975 -59.85285,1.3202 -131.18807,-32.67497 -19.6371,-9.35816 -33.26207,-15.13036 -34.15942,-14.47156 -0.82101,0.60274 -5.62101,4.59266 -10.66666,8.86648 -17.37691,14.71873 -38.03496,24.91016 -61.57159,30.37566 -11.83068,2.74723 -12.50833,3.09936 -14.81722,7.69966 -3.10978,6.19602 -6.23695,15.80102 -8.95842,27.51556 -1.69358,7.29002 -2.34202,20.27783 -2.99421,59.97187 -0.76695,46.67791 -1.0308,50.95923 -3.35165,54.38292 -3.521,5.19415 -3.72888,21.67153 -0.39887,31.61708 3.47549,10.38005 3.42045,24.32031 -0.1276,32.33333 -1.5424,3.48334 -3.08883,6.33334 -3.43651,6.33334 -0.34768,0 -2.22861,-4.79376 -4.17985,-10.6528 -1.95123,-5.85903 -4.02104,-10.94534 -4.59956,-11.30288 -0.57852,-0.35755 -2.42479,4.17161 -4.10279,10.0648 l -3.05093,10.71488 -6.51867,-6.412 c -16.28598,-16.01943 -18.52422,-35.30474 -5.59777,-48.23119 5.47031,-5.47029 7.96685,-12.18081 4.53169,-12.18081 -2.14369,0 -1.56561,-6.03047 2.66943,-27.84732 8.21699,-42.32996 8.25425,-60.75109 0.19727,-97.52604 -2.16416,-9.87798 -4.32902,-21.88636 -4.8108,-26.68529 l -0.87598,-8.72532 -11.58996,1.71487 c -6.37448,0.94316 -12.34388,1.43688 -13.26533,1.09714 -6.63016,-2.44449 -45.13154,7.92442 -60.95192,16.41512 -9.60089,5.15275 -23.822687,19.11018 -30.675835,30.1056 -12.792805,20.52521 -27.481759,57.53825 -32.668655,82.31804 -2.308976,11.03088 -2.390462,13.00797 -0.736862,17.87853 1.02256,3.01188 2.289713,9.28139 2.815897,13.93224 0.612457,5.4134 2.077776,10.10809 4.072345,13.04725 5.631859,8.29902 7.049447,17.7974 4.418923,29.60851 -2.29277,10.29459 -2.475608,10.39272 -6.505869,3.49196 -4.145915,-7.09879 -4.106339,-7.11403 -7.352988,2.83351 l -2.282072,6.99212 -5.592649,-3.84784 c -7.422553,-5.10686 -16.611189,-15.20346 -18.966613,-20.84078 -2.628016,-6.28972 -2.376391,-11.16145 0.895976,-17.34705 1.536864,-2.90505 3.658946,-10.04941 4.715738,-15.87635 l 1.921442,-10.59442 -4.049072,-3.16888 c -2.226991,-1.74288 -4.049073,-4.00689 -4.049073,-5.03113 0,-2.53152 11.881154,-35.05712 25.793275,-70.61114 8.375948,-21.40569 11.872014,-32.16991 12.935911,-39.8291 2.130292,-15.33633 6.10536,-27.00087 11.027409,-32.35908 4.732728,-5.15212 10.706207,-7.06269 22.243402,-7.11439 8.33811,-0.0373 18.77685,-4.38442 31.85467,-13.2654 8.6486,-5.87316 8.44008,-5.41465 10.84841,-23.85369 3.43773,-26.3206 20.77851,-64.25964 49.6061,-108.53077 6.54884,-10.05718 11.52292,-18.90718 11.05354,-19.66666 -1.3195,-2.13499 -7.94019,-1.63868 -14.98003,1.12293 -7.95419,3.12031 -16.75748,4.64677 -20.30498,3.52084 -2.69715,-0.85604 -2.69695,-0.86345 0.12333,-4.67812 1.55364,-2.1014 2.4732,-4.73692 2.04349,-5.85672 -1.34694,-3.51008 -11.73089,-7.80919 -20.5773,-8.51929 -8.19764,-0.65803 -8.35231,-0.74023 -6.09223,-3.23759 3.4042,-3.7616 0.21609,-5.34679 -9.24168,-4.59513 -5.88959,0.46808 -7.66667,0.18708 -7.66667,-1.21231 0,-5.01637 10.9033,-10.03895 26,-11.97681 3.66667,-0.47067 10.4158,-2.08235 14.9981,-3.58152 15.49114,-5.06819 31.36022,-1.61324 51.31281,11.17158 l 6.31089,4.04378 17.02244,-1.74058 c 22.71648,-2.32281 74.0159,-2.34924 87.02242,-0.0448 22.5318,3.99203 50.79971,12.49954 82.72239,24.89614 9.93065,3.85638 22.53065,8.2534 28,9.77112 11.39997,3.16346 32.37457,5.53562 48.94588,5.53562 h 11.38572 l 22.13966,-12.19842 c 12.17683,-6.70915 26.44116,-15.09468 31.69853,-18.63455 8.54936,-5.75641 9.85186,-7.21924 12.33334,-13.85159 1.52596,-4.0785 2.77448,-8.61345 2.77448,-10.07764 0,-1.4642 -5.37807,-13.29169 -11.95126,-26.28332 -13.68237,-27.04262 -18.53538,-41.81743 -19.66424,-59.86701 -0.79416,-12.69825 0.98978,-26.05404 4.3473,-32.54676 l 1.80648,-3.49334 -12.9358,-0.75646 c -14.97648,-0.8758 -32.07916,-5.45393 -46.85575,-12.5426 l -9.91993,-4.75881 9.91993,-2.92413 c 5.45596,-1.60828 15.01994,-5.06447 21.25327,-7.68043 17.23243,-7.23197 24.66508,-9.04718 37.242,-9.09532 l 11.42466,-0.0437 4.93794,-5.77799 4.93794,-5.77798 -9.64629,-0.87414 c -12.24625,-1.10972 -27.08894,-4.65662 -48.12328,-11.49982 l -16.5997,-5.40047 -12.41998,5.27251 c -15.73562,6.68008 -25.08926,9.35392 -37.34714,10.67609 -11.20855,1.20899 -28.64136,-0.22984 -36.40615,-3.0048 -6.24302,-2.23112 -5.34762,-2.73643 8.66667,-4.89084 16.40809,-2.5224 30.75938,-6.53872 40.66666,-11.38087 8.71543,-4.25964 16.38262,-9.49473 15.18888,-10.37085 -0.28721,-0.21081 -4.72221,-3.29915 -9.85554,-6.86299 -5.13334,-3.56384 -14.43334,-10.49184 -20.66667,-15.39556 l -11.33333,-8.91584 -20.66667,-2.20768 c -21.62969,-2.31054 -35.24862,-5.24258 -45.33333,-9.75989 -5.99917,-2.68724 -11.74748,-7.77173 -10.35765,-9.16154 0.4054,-0.40542 5.66801,0.19826 11.69466,1.3415 12.59004,2.3883 35.37091,2.70075 47.96258,0.65784 4.7481,-0.77033 8.88723,-1.65494 9.19807,-1.96578 0.83858,-0.83858 -4.96604,-11.33682 -11.15863,-20.18154 -4.25296,-6.0744 -7.20282,-8.64868 -13.54728,-11.82248 -20.79966,-10.40502 -32.14283,-23.51865 -46.66,-53.9428 -5.42372,-11.36666 -12.51668,-26.04713 -15.76214,-32.62326 -3.24546,-6.57613 -5.67421,-12.18323 -5.39722,-12.46021 0.27698,-0.27699 2.27616,-0.1143 4.4426,0.36153 5.85058,1.285 13.19686,8.22248 27.567,26.03295 10.94268,13.56243 24.43286,27.58839 25.36444,26.37181 0.14718,-0.19222 -0.18026,-5.14948 -0.72764,-11.01615 -0.5474,-5.86666 -1.34452,-24.31666 -1.77139,-41 -0.8162,-31.899841 -0.46845,-33.877873 4.91085,-27.933802 3.34686,3.698235 5.65662,11.461799 10.86619,36.523572 5.58433,26.86454 9.87183,43.48086 11.47501,44.47168 1.65535,1.02307 7.78888,-8.8232 9.93187,-15.94381 1.01652,-3.37764 2.20118,-12.28586 2.63258,-19.79607 C 423.06243,114.4438 423.9368,108 425.38792,108 c 0.67349,0 2.58673,2.55 4.25164,5.66666 2.80631,5.25336 3.02709,7.31991 3.02709,28.33334 0,17.61422 -0.56944,25.12174 -2.55468,33.68086 -2.43754,10.50923 -2.45506,11.62101 -0.38201,24.25009 7.48497,45.59872 38.32167,76.996 93.88043,95.58713 12.46773,4.17196 39.82918,11.10463 43.95286,11.1365 5.17808,0.04 5.56616,-22.93639 0.69201,-40.97056 l -2.60794,-9.64931 4.0291,2.31597 c 8.50202,4.88706 17.17135,21.16127 20.91584,39.26355 l 1.57502,7.61424 6.73228,-2.65361 c 6.89709,-2.71859 10.43376,-1.99346 10.43376,2.13924 0,3.04368 7.97104,-0.86086 8.17906,-4.00643 0.81218,-12.2814 -2.48329,-27.87884 -8.76114,-41.46641 -2.51776,-5.44936 -4.15606,-9.90793 -3.64068,-9.90793 3.70201,0 11.94668,8.49257 19.73805,20.33153 4.94747,7.51765 9.16599,13.90397 9.37449,14.1918 0.85191,1.17601 4.65903,-3.24216 8.34086,-9.67956 9.97586,-17.4421 14.98649,-43.90991 14.92591,-78.84377 -0.0444,-25.60712 -2.0587,-39.87506 -8.27001,-58.57908 l -4.01409,-12.08759 -12.38553,-10.86153 C 618.94781,101.63965 614.09434,95.09977 607.9054,80.233275 603.9626,70.76224 595.99998,42.311332 595.99998,37.694496 c 0,-3.664774 3.40352,0.501903 12.82503,15.700733 17.37673,28.032244 27.92492,40.624868 36.17497,43.186357 2.87414,0.892367 3,0.605916 3,-6.827713 0,-4.267537 -1.19157,-14.012542 -2.64793,-21.655569 -4.65003,-24.40344 -5.70999,-35.150782 -4.06812,-41.248206 0.81703,-3.034221 1.94895,-5.516765 2.51537,-5.516765 0.56644,0 1.78098,2.930626 2.69899,6.512502 0.918,3.581876 4.39392,11.231876 7.72425,17 9.81209,16.994486 15.03537,28.611451 15.94392,35.460488 0.46843,3.531106 1.3892,6.752401 2.04617,7.158433 0.65698,0.40603 2.97115,-1.163677 5.14262,-3.48824 4.55572,-4.876912 8.343,-16.049756 10.62297,-31.338835 0.87249,-5.850725 2.85791,-13.337682 4.41205,-16.637682 l 2.82571,-6 1.22232,24.915945 c 1.465,29.8628 0.25008,37.242188 -9.37503,56.943916 l -6.25666,12.8068 -0.07,24.22144 c -0.0385,13.3218 0.35041,24.6422 0.86424,25.15645 0.51382,0.51426 4.79485,-0.87158 9.5134,-3.07966 9.46386,-4.42868 25.57268,-18.74809 33.92161,-30.15356 4.84057,-6.61267 4.97464,-6.69009 5.38775,-3.11157 0.61985,5.36958 -4.53299,24.44826 -8.37264,31.00014 -6.59995,11.262 -24.17774,23.30009 -34.02232,23.30009 -3.551,0 -3.80054,0.71162 -5.43504,15.49975 -0.80044,7.2418 -2.79792,20.51692 -4.43887,29.50025 l -2.98353,16.33334 6.08105,-10e-4 c 3.73911,-7.7e-4 12.75651,-2.30636 23.41439,-5.98664 9.53333,-3.29197 18.2051,-5.9914 19.2706,-5.99875 2.7598,-0.0191 -7.00024,9.75091 -16.73327,16.75021 -9.05497,6.5117 -23.67016,14.0788 -32.00619,16.5714 -3.6476,1.0907 -6.25184,2.96078 -7.82002,5.6155 -1.29315,2.18912 -5.25811,7.82081 -8.81103,12.51488 -3.55293,4.69406 -6.33392,8.53417 -6.17999,8.53357 0.15395,-6e-4 4.4799,-0.85056 9.61323,-1.88879 5.13333,-1.03824 13.74008,-2.30434 19.12611,-2.81356 9.52329,-0.90038 9.75332,-0.85213 8.3589,1.75338 -3.62102,6.76593 -15.45989,17.77344 -23.01658,21.4003 l -7.96775,3.82415 3.74967,1.40449 c 2.0623,0.77247 4.94965,1.83628 6.41632,2.36402 1.46666,0.52773 8.06666,1.33397 14.66666,1.79165 l 12,0.83212 -0.27613,4 c -0.15188,2.2 -0.65143,6.11216 -1.11012,8.69369 -0.64103,3.60779 -0.26867,5.17722 1.60947,6.78364 1.3439,1.14947 12.04345,6.14972 23.77678,11.11168 11.73334,4.96196 27.17078,11.74395 34.30542,15.07107 11.66905,5.44166 13.24276,6.60844 15.66666,11.61558 3.0352,6.26987 3.39653,12.75578 1.19725,21.48991 -1.73094,6.87425 -1.92319,7.04351 -9.48218,8.34781 l -5.68715,0.98132 4.29152,2.54875 c 2.36034,1.40183 4.60819,3.37399 4.99522,4.38257 1.80936,4.71512 -5.89599,10.55143 -11.79618,8.93484 -1.55314,-0.42554 -6.57618,-2.3093 -11.16232,-4.18614 l -8.33844,-3.41244 -17.03806,3.47916 c -9.37094,1.91353 -21.6199,3.74496 -27.2199,4.06982 -6.83932,0.39676 -12.07765,1.54312 -15.95684,3.49199 -7.7225,3.87975 -14.45641,9.03072 -14.37768,10.99793 0.0352,0.87935 3.4225,3.99882 7.52734,6.93215 8.40128,6.00359 16.04088,15.39304 20.68902,25.42784 1.72248,3.71865 5.05722,9.09704 7.4105,11.95198 5.99164,7.2689 13.19349,21.43292 15.60464,30.68991 4.03954,15.50888 2.16222,38.81715 -4.89911,60.82601 l -2.85411,8.89576 3.81251,8.43757 c 2.99313,6.62418 3.93781,10.96079 4.39548,20.17771 0.71948,14.48957 -1.19079,23.92852 -7.62416,37.67232 l -4.94644,10.56721 25.41017,14.09461 c 13.9756,7.75203 29.31018,16.55288 34.07684,19.55746 4.76667,3.00456 11.35662,6.17737 14.64433,7.05069 14.30744,3.80051 24.03172,11.36208 26.55734,20.65092 3.042,11.188 0.66264,20.71651 -7.51304,30.08717 -2.19754,2.51872 -4.45118,6.0795 -5.0081,7.91283 -0.55692,1.83333 -7.15916,19.83333 -14.67164,40 -7.51247,20.16666 -14.41829,39.06666 -15.34626,42 -0.92796,2.93333 -3.71663,8.12729 -6.19704,11.54212 -4.9022,6.74893 -8.52159,14.91991 -11.79557,26.62914 -2.57014,9.19192 -14.86402,28.04551 -25.97119,39.82873 l -8.16943,8.66667 0.81251,-9.63089 0.81252,-9.6309 -4.70105,1.96423 c -4.99391,2.08659 -11.45715,2.63097 -11.44771,0.96423 0.0239,-4.20223 9.64852,-38.5175 12.4828,-44.50538 5.18552,-10.95519 9.20549,-14.49462 16.46259,-14.49462 4.7662,0 6.68073,-0.76 9.81817,-3.89744 6.34867,-6.34867 4.67968,-10.69763 -5.11017,-13.31584 l -3.16335,-0.84601 4.71629,-6.17675 c 2.59398,-3.39721 7.10212,-7.28388 10.01814,-8.63703 4.54088,-2.10716 5.96258,-3.8955 9.90569,-12.46026 8.29669,-18.02107 14.11057,-32.9112 17.60001,-45.07602 3.40526,-11.87131 3.4153,-12.04819 1.27427,-22.44479 -2.22797,-10.8188 -4.86315,-16.46127 -7.70751,-16.50346 -18.39368,-0.27284 -29.91346,-2.32009 -59.6176,-10.595 -10.62324,-2.9594 -20.4061,-5.38073 -21.73969,-5.38073 -1.33359,0 -6.43972,2.42156 -11.34695,5.38125 -13.71631,8.2727 -23.64173,10.92667 -40.26502,10.76648 -7.7,-0.0741 -15.13825,-0.28778 -16.52945,-0.47465 -2.10892,-0.28327 -3.47931,2.34627 -8.24278,15.81636 -8.32978,23.55488 -10.27636,34.20488 -8.4286,46.11398 1.94722,12.55012 1.17966,17.1337 -6.19801,37.01203 -5.43921,14.65539 -6.39827,18.90217 -8.12985,36 -1.55394,15.34358 -1.65696,22.0593 -0.49423,32.21541 1.61721,14.12575 0.43379,25.92865 -3.32941,33.20588 -2.97916,5.76105 -2.7875,14.41919 0.44345,20.03205 4.22427,7.33848 6.91483,22.34088 6.84984,38.19441 l -0.0591,14.40352 -7.77352,-8.3334 c -4.27542,-4.58333 -8.03854,-8.33333 -8.36246,-8.33333 -0.32392,0 -2.30959,3.6 -4.4126,8 -2.10302,4.40003 -4.21052,8.00003 -4.68338,8.00003 -0.47284,0 -4.58793,-3.75 -9.14464,-8.33336 z m 10.63351,-9.33334 c 2.29748,-4.58333 4.42096,-8.59817 4.71885,-8.92188 0.29789,-0.32369 3.82679,2.65582 7.84197,6.62112 l 7.30035,7.20967 -0.008,-8.62112 c -0.008,-9.35452 -1.78307,-17.37776 -4.89539,-22.12774 -1.5539,-2.37156 -2.60214,-2.77532 -4.9187,-1.89456 -3.5622,1.35434 -11.04664,-0.99058 -16.26624,-5.09632 l -3.69367,-2.90543 -3.71443,3.55865 c -2.04294,1.95727 -4.69984,5.63523 -5.90421,8.17327 -2.03161,4.28131 -2.031,5.03036 0.008,10.37045 1.78227,4.66429 13.58396,21.96723 14.984,21.96723 0.20364,0 2.25,-3.75 4.54747,-8.33334 z m 9.25672,-35.78291 c 0.88881,-1.66075 1.14584,-5.28987 0.63744,-9 -0.66559,-4.85714 -0.20182,-7.67538 2.12017,-12.88375 2.29575,-5.14951 2.93349,-8.94241 2.80233,-16.66667 -1.09996,-64.78339 -1.05209,-65.24387 9.34923,-89.95675 l 6.71599,-15.95675 -1.51036,-8.19697 c -0.8307,-4.50835 -1.51035,-10.61363 -1.51035,-13.5673 0,-10.1875 6.30327,-36.45439 14.61553,-60.90567 4.4145,-12.98566 4.9404,-16.70034 2.38447,-16.84275 -0.91667,-0.0511 1.26244,-0.99231 4.84245,-2.09161 12.21912,-3.75208 23.44167,-19.125 31.01286,-42.48219 3.50104,-10.80073 4.15184,-6.94245 0.99769,5.91481 -3.99561,16.28732 -17.43185,41.59212 -23.02743,43.36808 -1.37737,0.43716 -3.74021,3.7735 -5.25658,7.42228 l -2.75454,6.62816 4.25944,0.14276 c 11.47968,0.38476 24.741,-0.58369 31.46374,-2.29776 26.85382,-6.8468 44.34191,-26.20218 49.65815,-54.96037 0.73839,-3.99426 2.70259,-9.42733 4.3649,-12.07346 11.02286,-17.5467 12.27084,-36.30568 3.58977,-53.95964 l -3.84297,-7.81514 3.10842,-7.64988 c 8.67994,-21.36148 11.92838,-46.72927 8.07568,-63.06507 -2.65121,-11.2414 -7.07182,-20.06534 -14.81478,-29.57159 -3.30558,-4.05836 -6.01014,-8.01121 -6.01014,-8.78412 0,-6.32045 -16.07272,-25.54909 -26.43162,-31.62153 -5.06523,-2.96927 -5.66011,-3.80212 -4.90116,-6.86181 1.31732,-5.31074 5.27029,-8.75152 15.43912,-13.43863 7.34886,-3.38731 11.49965,-4.38775 19.99617,-4.81956 5.89723,-0.29971 16.48224,-1.74776 23.52225,-3.21789 16.5802,-3.46236 20.86567,-3.37043 30.78554,0.66037 9.39642,3.81811 13.88842,4.18653 16.25637,1.33333 1.42749,-1.72001 0.92703,-2 -3.57495,-2 -5.95113,0 -18.4245,-5.67142 -19.6823,-8.94918 -1.56091,-4.06768 1.31078,-4.80519 12.16754,-3.12484 12.31278,1.90568 16.58608,0.78497 18.9722,-4.97562 2.23808,-5.40321 1.44298,-14.43796 -1.21582,-13.81537 -1.1,0.25759 -5.33431,0.78043 -9.40956,1.16188 -5.83528,0.54619 -7.88911,0.21399 -9.66667,-1.56357 -3.48123,-3.48122 -2.8148,-4.38195 4.9018,-6.62522 12.46811,-3.62458 12.27593,-5.30921 -1.32255,-11.59374 -14.54774,-6.72326 -42.1752,-18.38968 -53.83636,-22.73384 -7.61345,-2.83625 -8.72021,-3.69081 -9.10729,-7.03192 -0.27012,-2.33163 0.63276,-5.25513 2.33333,-7.55529 5.00147,-6.76483 3.98098,-7.85995 -7.32428,-7.85995 -10.75604,0 -23.95118,-3.60636 -36.54487,-9.98807 l -6.49068,-3.28908 -0.8356,3.80447 c -1.65206,7.52175 -9.59444,12.13935 -20.87998,12.13935 -4.6461,0 -8.36948,0.98325 -12.24653,3.23401 -3.06392,1.77871 -7.97076,3.6726 -10.90409,4.20865 -2.93334,0.53606 -7.43334,2.6312 -10,4.65588 -2.56667,2.0247 -7.16318,4.40975 -10.21447,5.30012 -4.94625,1.44334 -5.95825,1.33078 -9.33333,-1.03816 -11.6484,-8.17588 -29.12303,-7.69577 -53.53904,1.47096 -9.03111,3.39064 -18.7944,6.54444 -21.69623,7.00847 -2.90181,0.46401 -5.55661,1.29766 -5.89954,1.85253 -0.34294,0.55488 2.60405,2.31884 6.54886,3.91992 25.79778,10.47055 59.53825,12.21709 74.0472,3.833 4.17993,-2.41541 4.41292,-2.434 2.66667,-0.21269 -2.91292,3.70532 -5.34694,5.53394 -12.0608,9.06097 -8.99599,4.72592 -11.0632,9.78337 -11.62896,28.45032 -0.68626,22.64248 1.30492,29.5794 17.94208,62.50717 15.7378,31.14781 16.02481,32.52853 9.85581,47.41236 -2.884,6.95817 -3.96761,8.0136 -17.21632,16.76849 -7.77623,5.13863 -22.88446,14.1936 -33.57386,20.12215 l -19.43528,10.77917 -10.56472,-0.0107 c -26.16303,-0.0271 -44.9212,-4.03242 -77.84399,-16.62157 -26.67832,-10.20162 -51.68378,-18.20789 -71.38741,-22.8571 -20.43687,-4.82223 -49.05848,-5.64535 -86.68949,-2.49306 l -28.02281,2.34744 -11.97719,-6.80794 c -13.32913,-7.57642 -25.51249,-12.22376 -32.04547,-12.22376 -2.37461,0 -8.36258,1.2494 -13.30659,2.77645 -6.93554,2.14217 -10.74571,2.57259 -16.67814,1.88405 -5.07348,-0.58884 -8.71249,-0.34464 -10.69785,0.7179 -4.45287,2.3831 -1.58551,3.38338 15.39259,5.3697 8.05294,0.94214 14.05294,1.84551 13.33333,2.00751 -0.7196,0.16199 -5.71395,1.02267 -11.09855,1.91261 -5.3846,0.88996 -9.2846,2.086 -8.66666,2.65788 1.9391,1.79462 18.35117,5.34056 24.71824,5.34056 h 6.09102 l -1.52033,4.33334 c -0.8362,2.38333 -2.00091,5.08333 -2.58824,6 -1.41515,2.20861 1.67278,2.12805 11.75614,-0.30667 9.94036,-2.4002 19.47472,-2.55403 22.31326,-0.36 1.91238,1.47817 0.74885,3.76399 -10.28814,20.21139 -14.08016,20.98238 -28.05819,47.22158 -37.71021,70.78861 -9.10717,22.23669 -11.8003,31.13442 -14.42761,47.66663 l -2.27787,14.33331 -6.8047,4.51115 c -3.7426,2.48112 -12.29391,7.37377 -19.00292,10.87254 -10.90435,5.68667 -13.43921,6.45999 -23.898353,7.2907 -16.798999,1.33425 -18.032059,3.07162 -23.179038,32.659 -3.085759,17.73846 -4.615203,22.219 -19.919721,58.35523 -6.594795,15.57128 -13.632293,33.30232 -15.638885,39.4023 l -3.648348,11.09086 3.867935,3.08418 3.867934,3.08418 -2.271052,11.78056 c -1.281024,6.64503 -1.76733,12.28429 -1.115552,12.93607 2.018496,2.01849 13.498374,1.31784 16.036065,-0.97875 1.937256,-1.75319 2.179832,-3.26331 1.358652,-8.45807 -0.549813,-3.47809 -2.086492,-8.60291 -3.41484,-11.38849 -2.325661,-4.87696 -2.326929,-5.49341 -0.03421,-16.63176 5.00365,-24.30848 24.98259,-74.86181 36.448019,-92.22557 10.497014,-15.89713 26.471174,-27.5118 47.809674,-34.76194 19.60773,-6.66208 31.39912,-9.34522 41.26325,-9.38947 25.04994,-0.1124 78.84812,-15.37115 110.89293,-31.45252 14.24022,-7.14632 15.44106,-7.50255 27.3998,-8.12805 7.19394,-0.3763 15.5936,0.008 19.77317,0.90414 4.4112,0.94604 23.76931,9.85968 49.26687,22.68546 23.1003,11.61992 46.20055,22.51474 51.33389,24.21073 8.83441,2.91877 11.66756,3.11009 53,3.57913 24.01666,0.27255 43.65891,10e-4 43.64946,-0.60134 -0.009,-0.60328 -1.24583,-4.99688 -2.74746,-9.76355 -3.72803,-11.83387 -4.69088,-31.80732 -2.47843,-51.4128 1.68468,-14.92866 1.85516,-15.50518 2.73637,-9.25386 0.51688,3.66666 0.99233,15.09061 1.05657,25.38653 0.14575,23.3578 2.08523,31.50894 10.42087,43.79637 3.42625,5.0506 7.28991,12.2506 8.58589,16 2.92062,8.4496 3.08584,23.35839 0.45975,41.48376 -2.6588,18.35113 -2.5382,27.07925 0.45528,32.95081 1.35941,2.66639 2.85521,7.44325 3.32403,10.61525 0.4688,3.172 1.72445,10.56727 2.79033,16.43394 1.52733,8.40656 1.65423,13.47845 0.59883,23.93694 -2.15443,21.34935 -4.2525,29.31581 -9.20674,34.95837 -2.39965,2.73307 -5.49586,7.53022 -6.88048,10.66035 -2.4816,5.61008 -2.48009,5.72852 0.10587,8.31449 3.89291,3.89291 5.39084,10.98956 4.17472,19.77822 -1.23097,8.89602 -0.26795,11.44154 5.70688,15.08465 5.47296,3.33711 8.45503,3.28428 10.31045,-0.18261 z m 42.9201,-359.05675 c -2.52265,-5.53662 -17.08626,-19.98315 -24.86901,-24.66908 -4.11867,-2.47983 -11.22908,-5.95176 -15.80089,-7.71543 l -8.31242,-3.20666 7.25255,0.68252 c 14.66923,1.38048 29.24776,12.01269 39.41048,28.74233 2.72711,4.4893 4.69103,8.42972 4.36427,8.75649 -0.32678,0.32676 -1.247,-0.83883 -2.04498,-2.59017 z m 58.94964,-13.45083 c -1.38701,-3.31959 -1.93849,-10.18332 -1.95511,-24.33333 -0.0268,-22.84191 -1.92542,-33.69336 -8.02588,-45.87216 -7.5915,-15.15548 -22.10774,-33.54379 -33.73734,-42.73647 -7.60269,-6.00958 -7.07776,-6.74086 0.89916,-1.2526 7.55549,5.19831 23.03731,21.7012 29.45032,31.39266 12.4102,18.75452 16.12026,34.3225 14.6825,61.61 -0.76376,14.49545 -0.5659,18.23338 1.14684,21.66666 1.1384,2.282 1.4852,4.14908 0.77066,4.14908 -0.71455,0 -2.16856,-2.08073 -3.23115,-4.62384 z M 611.73025,446.75892 c -10.80844,-3.45588 -18.05447,-8.06269 -26.15681,-16.62973 -8.21195,-8.68292 -12.12315,-16.66172 -12.97254,-26.46386 l -0.60645,-6.99868 2.03247,7.93354 c 6.28928,24.54957 29.71502,41.89748 56.931,42.16018 6.66194,0.0643 8.87188,0.45332 7.04206,1.23962 -4.5505,1.95542 -18.30482,1.30562 -26.26973,-1.24107 z m 112.42674,-28.09227 c -0.0769,-3.55494 1.54484,-6.1344 5.84299,-9.29298 2.14869,-1.57902 2.0706,-1.28914 -0.40204,1.4924 -1.68779,1.89862 -3.58621,5.18048 -4.21873,7.29298 -1.1032,3.68455 -1.15296,3.70522 -1.22222,0.5076 z m -63.49034,-31.14586 c -2.2,-1.01611 -5.42676,-3.39435 -7.17058,-5.28496 -2.87535,-3.11744 -3.07991,-4.15746 -2.19706,-11.17 0.53541,-4.25288 1.04628,-10.28251 1.13526,-13.39917 l 0.16178,-5.66667 h 6.43876 c 6.7973,0 22.97564,3.25283 26.21277,5.27036 1.58375,0.98707 1.61407,1.55479 0.17561,3.28801 -2.47206,2.97865 0.87752,7.66672 8.79167,12.30471 7.37725,4.32336 5.70859,5.84584 -2.06216,1.88149 -2.95891,-1.50952 -5.93249,-2.74457 -6.60799,-2.74457 -0.67548,0 -1.90556,2.69021 -2.7335,5.97825 -0.94976,3.77188 -2.71175,6.76872 -4.77415,8.12007 -4.52843,2.96713 -12.59569,3.62776 -17.37041,1.42248 z m 8.03998,-3.47662 c -3.48854,-3.8548 -2.93865,-8.95985 1.46002,-13.55426 2.64874,-2.76662 4.7604,-3.82714 6.83333,-3.43182 3.82036,0.72855 3.80123,-0.50722 -0.0641,-4.1385 -6.75823,-6.34903 -17.37664,-4.425 -21.698,3.93161 -4.51572,8.73244 1.72812,19.81545 11.16344,19.81545 4.56789,0 4.62245,-0.0621 2.3053,-2.62248 z M 510.66665,365.29499 c 2.56667,-0.60283 12.93023,-2.40799 23.03012,-4.01147 15.05481,-2.39015 19.06148,-2.6263 22.23753,-1.31073 7.16567,2.9681 5.92031,4.92544 -3.71281,5.83536 -13.31844,1.25801 -47.30884,0.83828 -41.55484,-0.51316 z M 222.40782,919.3333 c 1.61812,-5.5 3.46444,-10 4.10292,-10 1.53805,0 6.82259,12.38726 6.82259,15.99254 0,1.55733 0.6,2.46069 1.33333,2.00746 2.0518,-1.26808 1.57997,-15.46777 -0.74023,-22.2772 -1.69792,-4.9831 -2.7834,-6.22752 -5.99186,-6.86921 -2.15507,-0.43101 -6.5444,-3.20432 -9.7541,-6.16291 -6.32421,-5.82946 -6.61236,-5.76894 -10.6805,2.24311 -2.93454,5.77945 -2.74067,15.38059 0.43629,21.60796 2.82192,5.53141 9.05455,13.45825 10.58181,13.45825 0.52123,0 2.27162,-4.5 3.88975,-10 z m 497.05727,-5.01126 c 3.11786,-4.22287 6.3487,-9.73788 7.17962,-12.25559 1.30735,-3.96132 1.16819,-4.92023 -1.03361,-7.12203 -1.3994,-1.3994 -3.86996,-7.58438 -5.49013,-13.74441 -1.62018,-6.16001 -3.09163,-11.74436 -3.26991,-12.40964 -0.62799,-2.34341 -8.8588,7.96889 -12.88013,16.13736 -4.11574,8.36025 -9.13978,27.68119 -7.59868,29.22228 1.47982,1.47983 7.30013,-0.7132 11.68493,-4.40277 l 4.26272,-3.58686 -0.898,5.9198 c -0.49389,3.25588 -1.24391,7.70802 -1.66669,9.89363 -0.7159,3.70079 -0.60347,3.83821 1.63616,2 1.32266,-1.08561 4.95585,-5.42891 8.07372,-9.65177 z m -664.433065,0.60386 3.104195,-8.25734 3.104978,6.33237 c 2.701158,5.50881 3.243687,5.98556 4.171509,3.66571 2.862579,-7.15736 0.172719,-24.03874 -4.267573,-26.78298 -0.658498,-0.40698 -3.220414,-0.0723 -5.693145,0.74382 -3.35666,1.1078 -6.103284,1.07902 -10.839464,-0.1136 -5.698342,-1.43487 -6.525066,-1.34915 -8.127762,0.84266 -5.835991,7.9812 -2.501407,18.76515 8.533097,27.59582 3.403616,2.72384 6.350747,4.79008 6.549181,4.59164 0.198435,-0.19843 1.757677,-4.0766 3.464984,-8.61814 z M 230.39999,890.39997 c 0.88,-0.88 1.6,-4.80111 1.6,-8.71357 0,-4.5293 0.84768,-8.40735 2.33334,-10.67481 2.10858,-3.21823 2.34516,-8.25431 2.4561,-52.28643 0.14143,-56.12278 1.17607,-63.72541 11.89316,-87.39185 4.65799,-10.2862 5.65627,-11.03499 19.3174,-14.48968 6.96667,-1.76176 17.67779,-5.13949 23.80248,-7.50605 12.04563,-4.6544 31.45348,-16.92728 38.72143,-24.48615 l 4.5239,-4.70499 -3.69028,-0.9262 c -2.02965,-0.50941 -8.75357,-0.56888 -14.94204,-0.13213 -11.28341,0.79629 -21.04827,4.11157 -29.48246,10.00964 -7.52421,5.26172 -50.95363,20.04824 -65.90623,22.43925 l -5.0268,0.80383 v 7.19865 c 0,3.95926 1.79098,16.33258 3.97994,27.49626 7.6256,38.89042 7.77201,61.23922 0.61406,93.73073 -4.44417,20.17308 -5.40622,29.31494 -3.34622,31.7971 0.99517,1.19912 1.2413,3.69379 0.66666,6.75691 -0.78285,4.17294 -0.38384,5.40616 2.83675,8.76773 3.99595,4.17088 7.05645,4.90415 9.64881,2.31179 z m 510.81982,-20.55293 c 5.18453,-9.98411 10.09362,-20.63411 10.90912,-23.66667 5.35145,-19.90045 29.07535,-81.73413 33.76399,-88.00205 5.50903,-7.36461 7.69502,-13.01948 7.64272,-19.77078 -0.0924,-11.92728 -6.64729,-18.83948 -22.51269,-23.7398 -4.69838,-1.45119 -14.35062,-6.28124 -21.44941,-10.73346 -12.58852,-7.89524 -50.83289,-27.9343 -53.31239,-27.9343 -0.68386,0 -1.56393,2.3898 -1.95569,5.31066 -0.89121,6.64447 -5.0422,15.31807 -11.17437,23.34912 -2.59938,3.4043 -4.51726,6.36687 -4.26195,6.58348 0.25529,0.21662 5.26417,1.96259 11.13084,3.87992 15.96765,5.21852 36.81157,9.89374 54,12.11199 14.04736,1.81289 15.58461,2.29137 18.32944,5.70517 11.83288,14.71684 10.26037,31.85598 -6.50927,70.9456 -9.28062,21.63293 -12.06908,25.91837 -20.51046,31.52145 -7.51863,4.99058 -9.05904,7.24396 -4.97638,7.27968 3.90702,0.0341 5.80591,2.01847 7.00055,7.31536 1.02253,4.53376 0.70919,5.59659 -3.01705,10.23339 -2.28695,2.8458 -5.60754,5.53797 -7.37907,5.9826 -2.91116,0.73065 -3.1414,1.30609 -2.39365,5.9823 1.01957,6.37603 4.69601,15.79927 6.16404,15.79927 0.59689,0 5.32714,-8.16881 10.51168,-18.15293 z M 757.9159,422.53061 c -1.29737,-2.0992 -9.2166,-5.19729 -13.28512,-5.19729 -4.35183,0 -3.13655,2.28047 2.52927,4.74615 5.15021,2.24129 12.04085,2.5303 10.75585,0.45114 z M 580.09929,346.61599 c 2.92952,-1.49452 7.85561,-5.98791 10.94688,-9.98528 5.51231,-7.12807 8.75463,-7.92849 4.24657,-1.04833 -2.15206,3.28445 -2.15305,3.44388 -0.0163,2.62393 1.25124,-0.48015 3.07986,-0.87299 4.06362,-0.87299 2.85252,0 9.86702,-6.55772 12.65194,-11.82806 1.6424,-3.10815 2.57786,-3.97278 2.61572,-2.41762 0.0324,1.33155 -0.54062,3.54126 -1.2734,4.91047 -1.72631,3.22565 1.8421,4.51415 8.94072,3.22837 7.61305,-1.37897 11.83202,-3.98992 13.68818,-8.47106 2.27132,-5.48346 0.79054,-10.29715 -3.91634,-12.73118 -5.54491,-2.86738 -9.6084,-2.5217 -15.23407,1.29598 -4.3462,2.94941 -4.73401,3.02386 -3.47248,0.66666 1.85551,-3.46705 0.12773,-3.45673 -6.7268,0.0401 -5.68513,2.90034 -6.94765,1.89522 -2.58204,-2.0556 4.14932,-3.7551 1.1552,-4.9503 -5.87437,-2.34496 -5.7039,2.11401 -6.71204,3.15492 -10.26414,10.59766 -3.99962,8.38044 -10.03916,13.77587 -15.42041,13.77587 -3.57019,0 -8.13495,3.47943 -10.45779,7.97132 -1.9143,3.70184 -1.84818,3.88472 2.34095,6.47527 5.59716,3.46125 9.21468,3.50018 15.74352,0.16941 z M 455.33332,321.94572 c 6.6,-1.67146 17.62173,-5.39954 24.49273,-8.28461 l 12.49275,-5.24557 14.84059,5.01569 c 17.3544,5.86529 43.9207,11.70716 58.27938,12.81549 11.67985,0.90156 15.59344,-0.77604 19.11301,-8.19298 2.88228,-6.07396 2.70756,-22.08703 -0.33712,-30.89623 -2.2881,-6.62024 -10.94618,-22.20379 -11.83976,-21.31023 -0.24193,0.24194 0.47474,3.95134 1.5926,8.2431 2.7914,10.7169 2.6497,25.33246 -0.30292,31.24294 -2.78314,5.57124 -3.69565,5.58734 -26.84217,0.47327 -27.49674,-6.07521 -49.72724,-14.78735 -67.8732,-26.59948 -28.19778,-18.35539 -45.70473,-44.12678 -51.69594,-76.09986 -2.37947,-12.69839 -2.08754,-21.04379 1.25144,-35.77392 2.55549,-11.27376 2.6855,-27.4552 0.31884,-39.68299 -0.9598,-4.95897 -2.05468,-9.32591 -2.43308,-9.70431 -0.3784,-0.3784 -1.01523,6.37895 -1.41518,15.01632 -1.02365,22.1072 -5.46036,34.26542 -14.43953,39.56954 -3.57208,2.11008 -3.59428,2.098 -5.66821,-3.08527 -3.07019,-7.67316 -6.89396,-23.65409 -10.81176,-45.18631 -3.56243,-19.57902 -6.58553,-30.579165 -9.04917,-32.92698 -0.9654,-0.920017 -1.10958,-0.518777 -0.46508,1.294375 0.5137,1.44524 1.49626,19.317865 2.18345,39.716935 0.68719,20.39908 1.63644,38.63121 2.10945,40.51585 0.79487,3.16697 0.64404,3.31102 -1.99041,1.9011 -5.76871,-3.08732 -20.96916,-18.54509 -34.35892,-34.94055 -11.95316,-14.63641 -17.81845,-20.43762 -17.81845,-17.6238 0,0.42913 4.99834,11.08676 11.10745,23.68362 18.07304,37.26635 31.52796,54.47623 49.51212,63.3298 6.67167,3.28445 9.982,5.97472 13.80775,11.22143 6.59486,9.04434 16.23934,24.51153 16.23934,26.0436 0,2.67496 -13.94886,4.70262 -37.33333,5.42694 l -24.66667,0.76403 8.66667,2.93203 c 11.68947,3.95466 20.37829,5.36461 40.05595,6.49987 l 16.61071,0.95834 7.00048,6.37378 c 3.85027,3.50558 13.91867,11.24932 22.37422,17.20831 l 15.37374,10.83452 -2.69249,3.78124 c -5.90952,8.29916 -23.96728,16.3722 -44.72261,19.99404 -12.97165,2.26359 -14.38832,3.14323 -6.66667,4.13953 9.63344,1.24296 22.27012,0.0345 36,-3.4426 z m 208.10305,-4.05225 c 6.82749,-3.22992 20.56361,-14.9654 20.56361,-17.56856 0,-1.49941 -15.13968,0.24339 -26.94011,3.1012 -7.27661,1.76225 -9.57146,2.99288 -12.33333,6.61387 -1.86626,2.44681 -3.39322,4.77445 -3.39322,5.17253 0,1.20185 9.82484,5.99868 12.4159,6.06188 1.32873,0.0324 5.68796,-1.489 9.68715,-3.38092 z m -17.25563,-14.22681 c 3.6626,-4.58334 10.03583,-13.16291 14.16272,-19.06571 7.10093,-10.15667 7.91881,-10.86063 15.24665,-13.12297 4.25876,-1.31483 12.11011,-4.71952 17.44744,-7.566 9.39911,-5.01268 21.6291,-14.12792 21.6291,-16.12057 0,-0.53747 -3.15,0.44848 -7,2.191 -7.67996,3.47597 -24.76963,7.35091 -32.41978,7.35091 -4.12614,0 -4.71346,-0.35457 -3.86488,-2.33333 3.05674,-7.12769 9.95132,-51.08005 9.95132,-63.43866 0,-1.14648 1.96246,-2.20812 5,-2.7049 7.9354,-1.29778 20.95916,-8.14893 27.02863,-14.2184 5.90536,-5.90536 11.62391,-16.79702 12.87861,-24.52886 0.73936,-4.55621 0.4984,-4.3984 -11.74285,7.69096 -8.65427,8.54686 -15.12599,13.65332 -21.04401,16.60457 -10.80135,5.38653 -14.20342,5.51343 -15.19276,0.56671 -3.73007,-18.65036 -1.7078,-51.54498 3.7423,-60.87312 8.95232,-15.322357 14.6163,-43.794855 11.97895,-60.217561 l -1.05147,-6.547397 -2.42937,11.726346 c -3.85525,18.608917 -8.89244,27.955726 -17.47127,32.419018 -3.41824,1.778402 -3.67156,1.710758 -4.21933,-1.126686 -2.88224,-14.930138 -4.19441,-19.423706 -7.42665,-25.432743 -2.04703,-3.805598 -6.78435,-12.619269 -10.52739,-19.585935 -3.74305,-6.966667 -6.81705,-11.620588 -6.83113,-10.342046 -0.014,1.278541 1.56437,10.278541 3.50767,19.999999 2.35474,11.779781 3.57776,22.34506 3.66666,31.675379 l 0.13342,13.999996 -3.41915,0.39802 c -4.73723,0.55144 -15.32711,-6.843682 -21.57277,-15.064683 -2.78563,-3.666666 -9.66966,-14.299041 -15.29783,-23.627499 -5.62816,-9.328458 -10.386,-16.807865 -10.57296,-16.620902 -0.18696,0.186961 1.48615,6.594485 3.71801,14.238943 7.20644,24.683037 15.88894,38.34059 34.33532,54.009461 8.0436,6.83244 9.98515,9.36214 13.30339,17.33333 13.98852,33.60366 13.94274,97.56609 -0.0959,133.99999 -2.65828,6.89891 -13.26437,24.47526 -15.66404,25.95834 -0.60274,0.37252 -3.87245,-4.2698 -7.26601,-10.31624 -3.39357,-6.04644 -8.49599,-13.68947 -11.33872,-16.98448 l -5.16859,-5.99095 3.92354,11.74725 c 2.4355,7.292 4.22096,15.96175 4.70776,22.85968 l 0.78421,11.11242 5.07636,0.81174 c 2.792,0.44646 6.75735,2.29064 8.81187,4.09819 2.05452,1.80755 3.77782,3.30541 3.82957,3.32859 0.0517,0.0232 3.09075,-3.70787 6.75335,-8.2912 z"
       id="path316" />
  </g>
</svg>
